<?xml version="1.0" encoding="iso-8859-1"?>
<!-- Generator: Adobe Illustrator 19.0.0, SVG Export Plug-In . SVG Version: 6.00 Build 0)  -->
<svg version="1.1" id="Layer_1" xmlns="http://www.w3.org/2000/svg" xmlns:xlink="http://www.w3.org/1999/xlink" x="0px" y="0px"
	 viewBox="0 0 512 512" style="enable-background:new 0 0 512 512;" xml:space="preserve">
<g>
	<path style="fill:#FFA233;" d="M89.311,474.93c55.494-6.654,111.095-10.951,166.64-10.868c42.573,0.064,85.16,2.789,127.727,7.052
		c16.045,1.607,32.089,3.43,48.125,5.413c10.945,1.355,21.887,2.781,32.826,4.26c20.253,2.744,36.702-7.286,36.702-23.402v-47.423
		v-47.421c0-9.998-6.301-20.423-15.95-27.595c-5.894-4.379-13.039-7.546-20.752-8.663c-69.424-10.025-139.128-15.811-208.68-15.707
		c-69.558,0.105-139.224,6.346-208.63,16.128c-7.705,1.085-14.839,4.188-20.729,8.503c-9.629,7.05-15.925,17.339-15.925,27.337
		v47.421v47.423c0,16.116,16.368,25.82,36.654,23C61.31,478.437,75.308,476.61,89.311,474.93z"/>
	<path style="fill:#FFE67B;" d="M255.95,310.578c69.551-0.103,139.255,5.681,208.68,15.707c7.713,1.117,14.858,4.284,20.752,8.663
		c-8.353-105.45-87.786-190.887-190.389-208.397c-10.063,9.818-23.821,15.872-38.993,15.872c-6.663,0-13.053-1.167-18.978-3.311
		c-7.565-2.735-14.371-7.054-20.012-12.566C114.318,144.072,34.839,229.635,26.592,335.207c5.888-4.315,13.024-7.417,20.729-8.503
		C116.727,316.924,186.393,310.682,255.95,310.578z"/>
	<path style="fill:#7BA9D6;" d="M256.001,142.423c15.172,0,28.93-6.054,38.993-15.872c10.388-10.139,16.835-24.296,16.835-39.96
		c0-30.833-24.995-55.829-55.828-55.829s-55.829,24.997-55.829,55.829c0,15.665,6.447,29.821,16.839,39.956
		c5.641,5.512,12.447,9.831,20.012,12.566C242.947,141.257,249.338,142.423,256.001,142.423z"/>
</g>
<g>
	<path style="fill:#000003;" d="M495.617,329.673c-5.067-51.572-27.062-100.818-62.229-139.115
		c-32.036-34.889-74.04-59.688-119.685-70.98c5.584-9.73,8.795-20.987,8.795-32.987c0-36.666-29.831-66.496-66.497-66.496
		s-66.496,29.83-66.496,66.496c0,12,3.212,23.257,8.795,32.986c-45.69,11.301-87.725,36.133-119.776,71.073
		c-35.12,38.286-57.081,87.49-62.148,139.019C6.374,338.411,0,350.289,0,362.543v94.844c0,19.789,17.01,34.152,40.446,34.152
		c2.735,0,5.542-0.198,8.346-0.588c79.521-11.069,144.843-16.224,205.573-16.224l1.569,0.002
		c43.611,0.064,86.934,3.027,126.682,6.997c0.087,0.007,0.174,0.018,0.26,0.025c16.608,1.661,32.592,3.493,47.705,5.367
		c0.105,0.013,0.208,0.03,0.313,0.039c11.285,1.401,22.093,2.819,32.306,4.202c2.68,0.363,5.369,0.546,7.993,0.546
		c23.646,0,40.807-14.517,40.807-34.518v-94.844C512,350.49,505.568,338.548,495.617,329.673z M256.001,41.429
		c24.904,0,45.163,20.259,45.163,45.162s-20.259,45.162-45.163,45.162c-24.903,0-45.162-20.259-45.162-45.162
		C210.839,61.688,231.099,41.429,256.001,41.429z M213.838,137.971c0.781,0.642,1.573,1.267,2.381,1.873
		c-12.292,8.836-29.518,23.32-43.314,43.006c-3.38,4.825-2.21,11.478,2.615,14.859c1.863,1.305,3.998,1.932,6.112,1.932
		c3.36,0,6.669-1.585,8.744-4.546c16.468-23.497,39.182-38.944,48-44.396c5.617,1.546,11.522,2.388,17.623,2.388
		c15.99,0,30.679-5.676,42.161-15.115c90.286,17.535,159.393,89.275,174.293,179.074c-2.065-0.56-4.168-1.008-6.3-1.316
		c-73.706-10.645-141.86-15.817-208.355-15.817h-1.865c-64.571,0.098-133.297,5.407-210.102,16.232
		c-2.157,0.304-4.279,0.743-6.358,1.29C54.239,227.441,123.392,155.533,213.838,137.971z M490.666,457.388
		c0,9.059-10.094,13.184-19.474,13.184c-1.668,0-3.396-0.118-5.13-0.352c-6.726-0.911-13.711-1.838-20.911-2.765
		c2.673-14.432,4.026-35.792,4.113-64.674c0.018-5.892-4.743-10.682-10.635-10.7c-0.011,0-0.022,0-0.033,0
		c-5.876,0-10.648,4.754-10.666,10.636c-0.103,34.076-2.069,52.357-3.991,62.101c-8.807-1.056-17.876-2.09-27.17-3.08
		c2.1-13.54,2.094-29.003,2.09-35.147v-0.558c0-5.889-4.776-10.667-10.667-10.667c-5.89,0-10.667,4.778-10.667,10.667v0.569
		c0.009,15.968-0.885,26.307-2.003,33c-37.774-3.569-78.494-6.144-119.554-6.204l-1.601-0.002c-47.858,0-98.438,3.139-156.267,9.771
		c-1.756-13.181-2.643-32.408-2.634-57.434v-0.883c0-5.889-4.777-10.667-10.667-10.667s-10.667,4.778-10.667,10.667v0.876
		c-0.003,10.414-0.012,38.621,2.791,59.986c-10.125,1.268-20.47,2.638-31.068,4.112c-1.833,0.254-3.651,0.383-5.406,0.383
		c-9.513,0-19.111-3.963-19.111-12.818v-94.844c0-6.24,4.488-13.568,11.623-18.783c0.06-0.044,0.119-0.087,0.178-0.133
		c4.382-3.159,9.746-5.523,15.674-6.359c75.818-10.686,143.581-15.928,207.155-16.023h1.833c65.464,0,132.621,5.102,205.307,15.599
		c5.832,0.842,11.115,3.176,15.461,6.297c0.31,0.256,0.632,0.499,0.966,0.72c6.85,5.273,11.131,12.507,11.131,18.683v94.844H490.666
		z"/>
	<path style="fill:#000003;" d="M163.54,225.981c1.225,0.454,2.478,0.671,3.712,0.671c4.332,0,8.406-2.658,10.002-6.958l0.238-0.629
		c2.112-5.498-0.634-11.669-6.132-13.782c-5.499-2.112-11.671,0.634-13.784,6.132l-0.322,0.854
		C155.202,217.792,158.017,223.932,163.54,225.981z"/>
	<path style="fill:#000003;" d="M437.872,359.795c-5.888,0.175-10.519,5.089-10.344,10.98l0.022,0.734
		c0.172,5.779,4.911,10.348,10.657,10.348c0.108,0,0.215,0,0.324-0.004c5.888-0.175,10.519-5.091,10.344-10.98l-0.022-0.734
		C448.677,364.252,443.804,359.605,437.872,359.795z"/>
</g>
<g>
</g>
<g>
</g>
<g>
</g>
<g>
</g>
<g>
</g>
<g>
</g>
<g>
</g>
<g>
</g>
<g>
</g>
<g>
</g>
<g>
</g>
<g>
</g>
<g>
</g>
<g>
</g>
<g>
</g>
</svg>
